<svg width="30" height="30" viewBox="0 0 30 30" fill="none" xmlns="http://www.w3.org/2000/svg">
<path d="M15.0333 0C6.56371 0 0 6.19024 0 14.5513C0 18.9246 1.79698 22.7038 4.72198 25.3144C5.22702 25.7687 5.12298 26.0318 5.20887 28.8366C5.21563 29.033 5.27036 29.2248 5.36828 29.3953C5.46619 29.5658 5.60433 29.7097 5.77063 29.8145C5.93693 29.9193 6.12634 29.9818 6.32235 29.9966C6.51837 30.0114 6.71502 29.978 6.89516 29.8993C10.0954 28.49 10.1365 28.3787 10.679 28.5263C19.9506 31.0782 30 25.1444 30 14.5513C30 6.19024 23.5034 0 15.0333 0ZM24.0599 11.198L19.6446 18.1884C19.4778 18.4513 19.2586 18.6769 19.0006 18.8511C18.7426 19.0252 18.4515 19.1443 18.1453 19.2006C17.8392 19.257 17.5247 19.2496 17.2216 19.1788C16.9185 19.1079 16.6333 18.9753 16.3839 18.7891L12.871 16.1597C12.7139 16.0419 12.5229 15.9782 12.3266 15.9782C12.1303 15.9782 11.9393 16.0419 11.7823 16.1597L7.04214 19.755C6.40948 20.2347 5.58085 19.4768 6.00726 18.8072L10.4226 11.8167C10.5893 11.5538 10.8085 11.3281 11.0664 11.1539C11.3244 10.9797 11.6156 10.8606 11.9218 10.8042C12.2279 10.7478 12.5424 10.7553 12.8455 10.8262C13.1486 10.8971 13.4339 11.0298 13.6833 11.2161L17.195 13.8449C17.352 13.9626 17.543 14.0263 17.7393 14.0263C17.9356 14.0263 18.1266 13.9626 18.2837 13.8449L23.0262 10.2531C23.6577 9.77046 24.4863 10.5278 24.0599 11.198Z" fill="#FFF9F9"/>
</svg>
