<svg width="24" height="24" viewBox="0 0 24 24" fill="none" xmlns="http://www.w3.org/2000/svg">
<path d="M10.6 3.14344C8.15001 3.65344 6.17 5.62341 5.65 8.08341C5.21 10.1634 5.75002 12.2534 7.14002 13.8134C7.82002 14.5734 8.21 15.5834 8.21 16.5734V17.6534C8.21 18.3834 8.67999 18.9934 9.32999 19.2034C9.54999 20.4634 10.65 21.4834 12 21.4834C13.36 21.4834 14.46 20.4634 14.67 19.2034C15.32 18.9834 15.79 18.3834 15.79 17.6534V16.5734C15.79 15.5734 16.18 14.5834 16.89 13.7634C17.93 12.5834 18.5 11.0634 18.5 9.48343C18.5 5.40343 14.74 2.28344 10.6 3.14344Z" stroke="black" stroke-width="1.5" stroke-linecap="round" stroke-linejoin="round"/>
<path d="M11.99 6.08337C13.88 6.08337 15.42 7.62339 15.42 9.50339" stroke="black" stroke-width="1.5" stroke-linecap="round" stroke-linejoin="round"/>
<path d="M8.91 18.4235H15.08" stroke="black" stroke-width="1.5" stroke-linecap="round" stroke-linejoin="round"/>
<path d="M8.40784 15.3334H15.6432" stroke="black" stroke-width="1.5" stroke-linecap="round" stroke-linejoin="round"/>
</svg>
