<svg width="24" height="24" viewBox="0 0 24 24" fill="none" xmlns="http://www.w3.org/2000/svg">
<path d="M16.55 8.96004C16.13 8.96004 15.84 8.96004 15.84 8.96004C16.42 7.18004 17.06 4.31001 15.07 3.17001C14.53 2.86001 12.91 2.37 12.68 3.29C12.36 4.55 12.05 5.81001 11.3 6.92001C10.68 7.83001 9.74001 8.84004 8.57001 8.96004C8.57001 9.01004 8.57001 9.07003 8.57001 9.07003V18.32C8.57001 18.32 8.57001 18.57 8.57001 18.82C8.69001 18.86 8.81001 18.9 8.81001 18.9L10.91 19.59C11.6 19.82 12.32 19.94 13.05 19.94H18.18C19.2 19.94 20.03 19.12 20.03 18.11C20.03 17.87 19.98 17.65 19.89 17.44C20.68 17.22 21.25 16.51 21.25 15.67C21.25 15.2 21.08 14.77 20.78 14.44C21.07 14.12 21.25 13.69 21.25 13.23C21.25 12.76 21.08 12.33 20.78 12C21.07 11.68 21.25 11.25 21.25 10.79C21.25 9.78 20.42 8.96004 19.41 8.96004C19.41 8.96004 17.59 8.96004 16.55 8.96004Z" stroke="black" stroke-width="1.5" stroke-linecap="round" stroke-linejoin="round"/>
<path d="M2.75 7.38H6.24C7.52 7.38 8.56 8.42001 8.56 9.70001V18.94C8.56 20.22 7.52 21.26 6.24 21.26H2.75V7.38Z" stroke="black" stroke-width="1.5" stroke-linecap="round" stroke-linejoin="round"/>
<path d="M5.66001 18.74C6.09079 18.74 6.44001 18.3908 6.44001 17.96C6.44001 17.5292 6.09079 17.18 5.66001 17.18C5.22923 17.18 4.88 17.5292 4.88 17.96C4.88 18.3908 5.22923 18.74 5.66001 18.74Z" fill="black"/>
</svg>
