<svg width="24" height="24" viewBox="0 0 24 24" fill="none" xmlns="http://www.w3.org/2000/svg">
<path d="M8.84 10.84C10.5079 10.84 11.86 9.4879 11.86 7.82C11.86 6.1521 10.5079 4.8 8.84 4.8C7.1721 4.8 5.82001 6.1521 5.82001 7.82C5.82001 9.4879 7.1721 10.84 8.84 10.84Z" stroke="black" stroke-width="1.5" stroke-linecap="round" stroke-linejoin="round"/>
<path d="M2.75 19.2V17.48C2.75 15.48 4.37 13.86 6.37 13.86H11.79C13.79 13.86 15.41 15.48 15.41 17.48V19.2" stroke="black" stroke-width="1.5" stroke-linecap="round" stroke-linejoin="round"/>
<path d="M16.38 11.7C17.6171 11.7 18.62 10.6971 18.62 9.46C18.62 8.22288 17.6171 7.22 16.38 7.22C15.1429 7.22 14.14 8.22288 14.14 9.46C14.14 10.6971 15.1429 11.7 16.38 11.7Z" stroke="black" stroke-width="1.5" stroke-linecap="round" stroke-linejoin="round"/>
<path d="M17.02 13.94H18.56C20.04 13.94 21.24 15.14 21.24 16.62V17.9" stroke="black" stroke-width="1.5" stroke-linecap="round" stroke-linejoin="round"/>
</svg>
