<svg width="24" height="25" viewBox="0 0 24 25" fill="none" xmlns="http://www.w3.org/2000/svg">
<path d="M13.16 19.2201H6.22C4.3 19.2201 2.75 17.6701 2.75 15.7501V12.2801C2.75 10.3601 4.3 8.81006 6.22 8.81006H13.16C15.08 8.81006 16.63 10.3601 16.63 12.2801V15.7501C16.62 17.6701 15.07 19.2201 13.16 19.2201Z" stroke="black" stroke-width="1.5" stroke-linecap="round" stroke-linejoin="round"/>
<path d="M16.62 16.33L19.68 17.48C20.44 17.76 21.24 17.2 21.24 16.4V11.6401C21.24 10.8301 20.43 10.27 19.68 10.56L16.62 11.71V16.33Z" stroke="black" stroke-width="1.5" stroke-linecap="round" stroke-linejoin="round"/>
<path d="M6.69 7.92004C8.10937 7.92004 9.26 6.76941 9.26 5.35004C9.26 3.93066 8.10937 2.78003 6.69 2.78003C5.27062 2.78003 4.12 3.93066 4.12 5.35004C4.12 6.76941 5.27062 7.92004 6.69 7.92004Z" stroke="black" stroke-width="1.5" stroke-linecap="round" stroke-linejoin="round"/>
<path d="M12.69 7.92004C14.1094 7.92004 15.26 6.76941 15.26 5.35004C15.26 3.93066 14.1094 2.78003 12.69 2.78003C11.2706 2.78003 10.12 3.93066 10.12 5.35004C10.12 6.76941 11.2706 7.92004 12.69 7.92004Z" stroke="black" stroke-width="1.5" stroke-linecap="round" stroke-linejoin="round"/>
</svg>
